<?xml version="1.0" encoding="UTF-8"?>
<svg xmlns="http://www.w3.org/2000/svg" width="52.034" height="51.495" viewBox="0 0 52.034 51.495">
  <defs>
    <style>
      .cls-1 {
        fill: #fff;
        fill-rule: evenodd;
      }
    </style>
  </defs>
  <path id="noun-iso-5512946" class="cls-1" d="M71.613,50.867a30.861,30.861,0,0,0-9.594-9.856v8.082a17.572,17.572,0,0,1,7.714,2.2q.953-.191,1.88-.426ZM60.284,41.011a30.86,30.86,0,0,0-9.594,9.856q.927.235,1.88.426a17.577,17.577,0,0,1,7.714-2.2ZM49.8,52.425q-.362.681-.69,1.383a17.887,17.887,0,0,1,1.424-1.194q-.37-.091-.735-.189Zm-.685,27.258q.325.7.684,1.378.365-.1.735-.188a17.962,17.962,0,0,1-1.419-1.19Zm1.568,2.938a30.637,30.637,0,0,0,9.6,9.855V84.393a17.572,17.572,0,0,1-7.714-2.2q-.954.191-1.883.427Zm6.6,9.869a25.95,25.95,0,0,1-14.122-6.925,28.875,28.875,0,0,1,5.789-2.46,32.288,32.288,0,0,0,8.333,9.385ZM48.107,81.557a32.239,32.239,0,0,1-2.448-6.308A17.567,17.567,0,0,1,43.5,67.611H35.134a25.938,25.938,0,0,0,6.785,16.676,30.014,30.014,0,0,1,6.188-2.73ZM45.636,58.278a32.1,32.1,0,0,1,2.47-6.349,29.985,29.985,0,0,1-6.187-2.73,25.934,25.934,0,0,0-6.785,16.676H43.5a17.566,17.566,0,0,1,2.135-7.6Zm3.324-7.9a28.846,28.846,0,0,1-5.792-2.461A25.951,25.951,0,0,1,57.3,41a32.593,32.593,0,0,0-8.336,9.387ZM65.006,41A25.958,25.958,0,0,1,79.134,47.92a28.877,28.877,0,0,1-5.792,2.461,32.6,32.6,0,0,0-8.336-9.387ZM74.2,51.929a32.082,32.082,0,0,1,2.47,6.348,17.569,17.569,0,0,1,2.135,7.6h8.367A25.932,25.932,0,0,0,80.383,49.2,30.035,30.035,0,0,1,74.2,51.929Zm2.448,23.32A32.252,32.252,0,0,1,74.2,81.557a29.99,29.99,0,0,1,6.188,2.73,25.931,25.931,0,0,0,6.785-16.676H78.8a17.575,17.575,0,0,1-2.158,7.639Zm-3.3,7.855a28.857,28.857,0,0,1,5.789,2.46A25.953,25.953,0,0,1,65.011,92.49,32.284,32.284,0,0,0,73.345,83.1Zm-11.326,9.37a30.637,30.637,0,0,0,9.6-9.855q-.928-.236-1.883-.427a17.56,17.56,0,0,1-7.714,2.2v8.082ZM72.5,81.061q.359-.68.684-1.377a17.6,17.6,0,0,1-1.419,1.189q.37.09.735.188Zm.689-27.254q-.328-.7-.69-1.382-.365.1-.734.188a18,18,0,0,1,1.424,1.194Zm-12.038,3.23a6.023,6.023,0,1,0,6.023,6.023A6.023,6.023,0,0,0,61.151,57.037Zm3.837,4.571-4.575,4.152a.868.868,0,0,1-1.232,0l-1.9-1.9A.868.868,0,0,1,58.51,62.64l1.314,1.314,4-3.627a.866.866,0,0,1,1.166,1.281Zm-3.837-10.8A15.936,15.936,0,1,0,77.088,66.743,15.936,15.936,0,0,0,61.151,50.807Zm-4.3,28.2-1.795-3.088-3.518.615,2.327-5c.538.23.9,1.059,1.237,1.582a3.865,3.865,0,0,0,3.681,1.737Zm10.415-4.133-1.883,3.035-1.306-3.031A3.865,3.865,0,0,0,67.2,73.116c.793-1.212.53-1.279,1.727-1.791l1.837,4.265ZM71.121,62.86c-1.139,2.253-1.054,1.773-.755,4.28a2.125,2.125,0,0,1-1.29,2.233c-2.321.994-1.947.68-3.329,2.793a2.125,2.125,0,0,1-2.423.882c-2.416-.731-1.929-.731-4.346,0a2.126,2.126,0,0,1-2.423-.882c-1.382-2.113-1.008-1.8-3.329-2.793a2.126,2.126,0,0,1-1.29-2.233c.3-2.507.384-2.027-.755-4.28a2.126,2.126,0,0,1,.448-2.54c1.841-1.728,1.6-1.305,2.173-3.764A2.125,2.125,0,0,1,55.778,54.9c2.521-.14,2.062.026,4.084-1.486a2.127,2.127,0,0,1,2.579,0C64.462,54.926,64,54.759,66.525,54.9A2.127,2.127,0,0,1,68.5,56.556c.576,2.458.332,2.036,2.173,3.764a2.128,2.128,0,0,1,.447,2.54Z" transform="translate(-35.134 -40.995)"></path>
</svg>
