<?xml version="1.0" encoding="UTF-8"?>
<svg xmlns="http://www.w3.org/2000/svg" width="51.495" height="57.392" viewBox="0 0 51.495 57.392">
  <defs>
    <style>
      .cls-1 {
        fill: #fff;
        fill-rule: evenodd;
      }
    </style>
  </defs>
  <path id="noun-traceability-5583523" class="cls-1" d="M89,23.58a9.928,9.928,0,1,1-6.552,3.852A9.926,9.926,0,0,1,89,23.58Zm.271,1.587a.723.723,0,0,1-.1.014,8.321,8.321,0,0,0-7.042,9.331.753.753,0,0,1,.014.1,8.321,8.321,0,0,0,9.331,7.042.786.786,0,0,1,.1-.014,8.321,8.321,0,0,0,7.042-9.331.749.749,0,0,1-.014-.1,8.322,8.322,0,0,0-9.331-7.043Zm5.191,5.262-5.475,4.623-.048.041h0a.8.8,0,0,1-1.131-.136l-1.469-1.864a.23.23,0,0,0-.155-.086.234.234,0,0,0-.172.048.557.557,0,0,0-.191.233l-.005.03a.2.2,0,0,0,.058.146l2.338,2.967h0a.052.052,0,0,0,.012.014.048.048,0,0,0,.017,0,.083.083,0,0,0,.024,0l.013-.011,6.574-5.55h0a.2.2,0,0,0,.086-.139.506.506,0,0,0-.141-.29.24.24,0,0,0-.331-.03Zm-5.9,2.878-.953-1.21a1.847,1.847,0,0,0-2.591-.309,2.1,2.1,0,0,0-.766,1.153.8.8,0,0,0-.022.093,1.75,1.75,0,0,0,.377,1.426l2.336,2.966a1.661,1.661,0,0,0,2.373.241l6.576-5.549a1.739,1.739,0,0,0,.653-1.393,2.092,2.092,0,0,0-.517-1.305,1.844,1.844,0,0,0-2.6-.218l-4.864,4.106ZM89.3,6.2v4.242a.244.244,0,0,0,.241.242h4.136ZM94.778,20.36V12.293H89.537a1.858,1.858,0,0,1-1.854-1.855V5.025H62.511a.861.861,0,0,0-.855.855V47.215a.861.861,0,0,0,.855.855H93.923a.861.861,0,0,0,.855-.855V46.44a12.719,12.719,0,0,1-2.5.612A13.774,13.774,0,1,1,94.775,20.36Zm2.548,1.163q-.459-.267-.935-.5V11.487a.8.8,0,0,0-.273-.6L89.106,3.7a.8.8,0,0,0-.618-.287H64.2v-.04a.86.86,0,0,1,.855-.855h31.41a.861.861,0,0,1,.855.855v18.15Zm2.552,1.92V.864h0a.861.861,0,0,0-.855-.855H67.608a.861.861,0,0,0-.855.855V.9H96.47a2.473,2.473,0,0,1,2.468,2.468V22.627q.487.386.938.816Zm-34.747-6.1a.807.807,0,1,1,0-1.613H91.118a.807.807,0,0,1,0,1.613ZM84.273,9.862v1.625H72.164V9.862ZM71.355,8.249H85.079a.806.806,0,0,1,.807.807V12.29a.806.806,0,0,1-.807.806H71.355a.806.806,0,0,1-.807-.806V9.056a.806.806,0,0,1,.807-.807ZM65.131,21.391a.807.807,0,1,1,0-1.613H80.056a.807.807,0,1,1,0,1.613Zm0,4.045h0a.807.807,0,1,1,0-1.613H77.258a.807.807,0,0,1,0,1.613Zm0,4.045h0a.807.807,0,1,1,0-1.614H75.819a.807.807,0,0,1,0,1.614Zm0,4.045h0a.807.807,0,1,1,0-1.613H74.6a.807.807,0,1,1,0,1.613Zm0,4.045h0a.807.807,0,1,1,0-1.613H74.6a.807.807,0,1,1,0,1.613Zm0,4.045h0a.807.807,0,1,1,0-1.613H75.819a.807.807,0,0,1,0,1.613Zm32.2,1.652h0a.8.8,0,0,1,1.105.149l2.694,2.973a.8.8,0,0,1,.23.591,1.835,1.835,0,0,0,.118.711,1.759,1.759,0,0,0,.376.593l8.2,8.559a1.8,1.8,0,0,0,2.6-2.481l-8.2-8.559a1.775,1.775,0,0,0-.574-.4,1.813,1.813,0,0,0-.689-.15.8.8,0,0,1-.6-.287l-2.442-2.637h0a.8.8,0,0,1-.108-.115l-.186-.2h0a.8.8,0,0,1-.072-1.109q.122-.146.239-.295a.846.846,0,0,1,.057-.071,11.466,11.466,0,0,0,2.347-8.811A12.121,12.121,0,0,0,97.7,23.7l-.014-.011a.841.841,0,0,1-.071-.052,12.2,12.2,0,0,0-2.314-1.35c-.027-.01-.054-.022-.08-.035h0a12.162,12.162,0,1,0-3.156,23.2,11.167,11.167,0,0,0,2.733-.746c.136-.057.271-.115.405-.177a.837.837,0,0,1,.09-.042,12.14,12.14,0,0,0,2.042-1.223Z" transform="translate(-61.656 -0.009)"></path>
</svg>
