<?xml version="1.0" encoding="UTF-8"?>
<svg xmlns="http://www.w3.org/2000/svg" width="59" height="49.621" viewBox="0 0 59 49.621">
  <defs>
    <style>
      .cls-1 {
        fill: #fff;
      }
    </style>
  </defs>
  <g id="noun-measuring-accuracy-1588551" transform="translate(-97.555 -183.305)">
    <path id="Path_616" data-name="Path 616" class="cls-1" d="M278.98,677.21h16.156v21.761H278.98Z" transform="translate(-171.191 -466.045)"></path>
    <path id="Path_617" data-name="Path 617" class="cls-1" d="M135.433,190.908h-5.15V186.4l-4.327-3.091v7.6H111.375v-7.6l-4.327,3.091v4.512H97.555v22.7l9.469,8.5V204.626h18.939v17.481l9.469-8.5v-8.984h1.783v4.231H149.5v-4.231h7.058V190.907Zm-21.764,8.016H110.6V197.39h3.068Zm4.985,0h-3.068V197.39h3.068Zm4.985,0H120.57V197.39h3.068Zm4.978,0h-3.068V197.39h3.068Zm4.992,0H130.54V197.39h3.068Zm4.985,0h-3.068V197.39h3.068Zm4.985,0h-3.068V197.39h3.068Zm4.985,0H145.5V197.39h3.068Zm4.986,0h-3.068V197.39h3.068Z"></path>
  </g>
</svg>
