<?xml version="1.0" encoding="UTF-8"?>
<svg xmlns="http://www.w3.org/2000/svg" width="62.995" height="41.314" viewBox="0 0 62.995 41.314">
  <defs>
    <style>
      .cls-1 {
        fill: #fff;
      }
    </style>
  </defs>
  <path id="noun-quick-response-2509556" class="cls-1" d="M68.206,235.994a20.657,20.657,0,1,0,20.772,20.655V256.5a20.657,20.657,0,0,0-20.772-20.5Zm.1,5.249a.906.906,0,0,1,.92.918v14.33a.9.9,0,0,1-.092.57q-.016.031-.034.061t-.04.061a.9.9,0,0,1-.388.314l-8.9,5.421a.906.906,0,1,1-.942-1.547l8.584-5.231V242.162a.906.906,0,0,1,.891-.918Zm-38.656.108a.833.833,0,1,0,0,1.665h2.636a.833.833,0,1,0,0-1.665Zm6.051.036a.833.833,0,1,0,0,1.665H47.726a.833.833,0,1,0,0-1.665Zm38.869,1.14h.064a1,1,0,0,1,.48.13,14.411,14.411,0,0,1-9.136,26.864l-.321.947-2.58-3.005,3.879-.829-.321.951a12.4,12.4,0,0,0,7.509-23.172,1,1,0,0,1,.425-1.886ZM26.827,255.8a.833.833,0,1,0,0,1.665H29.5a.833.833,0,1,0,0-1.665Zm4.817.036a.833.833,0,1,0,0,1.665H43.67a.833.833,0,1,0,0-1.665Zm-1.786,14.412a.833.833,0,1,0,0,1.665h3.614a.833.833,0,1,0,0-1.665Zm5.843.036a.833.833,0,1,0,0,1.665H47.726a.833.833,0,1,0,0-1.665Z" transform="translate(-25.984 -235.992)"></path>
</svg>
