<?xml version="1.0" encoding="UTF-8"?>
<svg xmlns="http://www.w3.org/2000/svg" width="43.473" height="36.356" viewBox="0 0 43.473 36.356">
  <defs>
    <style>
      .cls-1 {
        fill: #fff;
      }
    </style>
  </defs>
  <g id="noun-contact-3842558-FFFFFF" transform="translate(-28.726 -122.4)">
    <path id="Path_673" data-name="Path 673" class="cls-1" d="M61.651,204.565l-6.986-3.607a2.322,2.322,0,0,0-2.877.639l-2.557,3.288a24.18,24.18,0,0,1-6.575-4.84,25.562,25.562,0,0,1-4.886-6.712l3.242-2.511a2.322,2.322,0,0,0,.639-2.877L38.044,181a2.331,2.331,0,0,0-3.333-.868L30.281,183.1a3.508,3.508,0,0,0-1.553,3.105,21.376,21.376,0,0,0,.548,3.973,32.318,32.318,0,0,0,8.767,14.429,33.42,33.42,0,0,0,14.429,8.767,26.048,26.048,0,0,0,3.973.548,3.429,3.429,0,0,0,3.151-1.6l2.877-4.475a2.26,2.26,0,0,0-.822-3.287Z" transform="translate(0 -55.179)"></path>
    <path id="Path_674" data-name="Path 674" class="cls-1" d="M519.435,122.4H497.426a1.832,1.832,0,0,0-1.826,1.826v1.187l12.831,5.388,12.831-5.388v-1.187A1.832,1.832,0,0,0,519.435,122.4Z" transform="translate(-449.109)"></path>
    <path id="Path_675" data-name="Path 675" class="cls-1" d="M508.431,291.914a3.178,3.178,0,0,1-1.142-.228L495.6,286.8v10.548a1.832,1.832,0,0,0,1.826,1.826h22.055a1.832,1.832,0,0,0,1.826-1.826V286.8l-11.735,4.886a3.178,3.178,0,0,1-1.142.228Z" transform="translate(-449.109 -158.144)"></path>
  </g>
</svg>
