<?xml version="1.0" encoding="UTF-8"?>
<svg xmlns="http://www.w3.org/2000/svg" width="35.602" height="35.603" viewBox="0 0 35.602 35.603">
  <defs>
    <style>
      .cls-1 {
        fill: #fff;
      }
    </style>
  </defs>
  <path id="noun-contact-2828188" class="cls-1" d="M67.419,78.081a1.393,1.393,0,0,0-.132,1.581,23.16,23.16,0,0,0,8.651,8.651,1.393,1.393,0,0,0,1.581-.132c3.215-2.646,4.129-3.451,4.718-3.516,1.049-.116,6.287,4.219,6.549,5.026.389,1.194-.587,4.921-1,5.318-.528.509-3.13.526-4.186.58-5.166.263-10.205-3.428-15.184-8.407S59.749,77.163,60.011,72c.054-1.056.071-3.658.58-4.186.4-.411,4.123-1.386,5.318-1,.807.262,5.141,5.5,5.026,6.549-.065.589-.87,1.5-3.516,4.717ZM95.6,60.989V75.038a.989.989,0,0,1-.989.989H74.832a.989.989,0,0,1-.989-.989V60.989A.989.989,0,0,1,74.832,60H94.612a.989.989,0,0,1,.989.989Zm-2.613.435H76.456l6.719,6.388a2.243,2.243,0,0,0,3.093,0Zm-17.72.835V73.768l6.053-5.754ZM76.456,74.6H92.988l-5.905-5.614a3.648,3.648,0,0,1-4.721,0Zm17.72-.835V62.259l-6.053,5.754Z" transform="translate(-59.998 -60)"></path>
</svg>
