<?xml version="1.0" encoding="UTF-8"?>
<svg xmlns="http://www.w3.org/2000/svg" width="41.135" height="42.819" viewBox="0 0 41.135 42.819">
  <defs>
    <style>
      .cls-1 {
        fill: #fff;
      }
    </style>
  </defs>
  <g id="noun-rfq-4814669" transform="translate(-149.963 -113.157)">
    <path id="Path_618" data-name="Path 618" class="cls-1" d="M190.044,351.4l-3.976-3.218a.859.859,0,1,0-1.08,1.337l3.968,3.167a1.286,1.286,0,0,1,.428.973v1.6h-1.375a7.713,7.713,0,0,0-4.936,1.787l-8.1,6.753-1.144-.938a5.142,5.142,0,0,0-6.573.034l-.9.763-7.931-6.612a7.713,7.713,0,0,0-4.936-1.787h-1.8V353.66a1.307,1.307,0,0,1,.463-.977l4.4-4.071a.858.858,0,1,0-1.165-1.26L151,351.4a3,3,0,0,0-1.033,2.262v22.162a3.428,3.428,0,0,0,3.428,3.428H187.67a3.428,3.428,0,0,0,3.428-3.428V353.66a3,3,0,0,0-1.054-2.262Zm-5.875,6.959a6,6,0,0,1,3.856-1.388h1.358v18.678L176.32,364.9Zm-30.689-1.388a6,6,0,0,1,3.856,1.388l7.713,6.427-13.373,11.192V356.968Zm-.09,20.568a1.775,1.775,0,0,1-.707-.154l15.67-13.181a3.428,3.428,0,0,1,4.383,0l15.888,13.065a1.688,1.688,0,0,1-.956.27Z" transform="translate(0 -223.273)"></path>
    <path id="Path_619" data-name="Path 619" class="cls-1" d="M339.22,130.267h16.244a3.664,3.664,0,0,0,2.751-1.238l4.285-4.88a3.6,3.6,0,0,0,0-4.713l-4.276-4.992a3.659,3.659,0,0,0-2.777-1.285H339.22a1.714,1.714,0,0,0-1.714,1.714v13.682a1.714,1.714,0,0,0,1.714,1.714Zm0-15.379h16.227a1.962,1.962,0,0,1,1.478.673l4.311,5a1.872,1.872,0,0,1,0,2.451l-4.285,4.88a1.962,1.962,0,0,1-1.487.656H339.219Z" transform="translate(-178.971)"></path>
    <path id="Path_620" data-name="Path 620" class="cls-1" d="M714.927,278.193a1.071,1.071,0,1,1-1.071-1.071,1.071,1.071,0,0,1,1.071,1.071" transform="translate(-537.097 -156.471)"></path>
  </g>
</svg>
