<?xml version="1.0" encoding="UTF-8"?>
<svg xmlns="http://www.w3.org/2000/svg" width="54.551" height="36.84" viewBox="0 0 54.551 36.84">
  <defs>
    <style>
      .cls-1 {
        fill: #fff;
      }
    </style>
  </defs>
  <path id="noun-newspaper-941752-FFFFFF" class="cls-1" d="M118.375,251.385a1.131,1.131,0,0,0-1.129-1.129h-4.268a1.131,1.131,0,0,0-1.129,1.129c0,2.979-.006,10.794-.006,10.794a.735.735,0,0,0,.733.733h.672a.735.735,0,0,0,.733-.733v-8.651a1.131,1.131,0,0,1,1.129-1.129,1.126,1.126,0,0,1,1.129,1.129V269.28a3.379,3.379,0,1,1-6.759,0v-29.2a2.125,2.125,0,0,0-2.125-2.119H65.961a2.129,2.129,0,0,0-2.125,2.119v32.6a2.13,2.13,0,0,0,2.125,2.125h49.044a3.381,3.381,0,0,0,3.382-3.376c0-5.611-.006-16.5-.012-20.038Zm-13.267-5.94v13.432a.735.735,0,0,1-.733.733H90.456a.735.735,0,0,1-.733-.733V245.445a.735.735,0,0,1,.733-.733h13.92a.735.735,0,0,1,.733.733Zm-29.183-3.327h20.27a.763.763,0,1,1,0,1.526H75.925a.763.763,0,1,1,0-1.526Zm-8.059,5.19h20.27a.458.458,0,1,1,0,.916H67.866a.458.458,0,1,1,0-.916Zm0,4.4h20.27a.458.458,0,1,1,0,.916H67.866a.458.458,0,1,1,0-.916Zm0,4.4h20.27a.458.458,0,1,1,0,.916H67.866a.458.458,0,1,1,0-.916Zm37.365,15.813H67.866a.458.458,0,1,1,0-.916h37.365a.458.458,0,1,1,0,.916Zm0-3.419H67.866a.458.458,0,1,1,0-.916h37.365a.458.458,0,1,1,0,.916Zm0-3.419H67.866a.458.458,0,1,1,0-.916h37.365a.458.458,0,1,1,0,.916Zm0-3.419H67.866a.458.458,0,1,1,0-.916h37.365a.458.458,0,1,1,0,.916Z" transform="translate(-63.836 -237.959)"></path>
</svg>
