<?xml version="1.0" encoding="UTF-8"?>
<svg xmlns="http://www.w3.org/2000/svg" width="51.556" height="62.693" viewBox="0 0 51.556 62.693">
  <defs>
    <style>
      .cls-1 {
        fill: #fff;
      }
    </style>
  </defs>
  <g id="noun-security-957672-FFFFFF" transform="translate(-126.002 -23.4)">
    <path id="Path_661" data-name="Path 661" class="cls-1" d="M566.853,539.627a2.025,2.025,0,1,0-4.051,0,1.95,1.95,0,0,0,.98,1.7l-.588,4.247h3.267l-.588-4.247A1.95,1.95,0,0,0,566.853,539.627Z" transform="translate(-413.017 -486.203)"></path>
    <path id="Path_662" data-name="Path 662" class="cls-1" d="M175.463,30.359,155.012,23.89a10.918,10.918,0,0,0-6.469,0l-20.451,6.469A3.021,3.021,0,0,0,126,33.234v7.71a54.132,54.132,0,0,0,23.065,44.3,4.648,4.648,0,0,0,5.358,0,54.167,54.167,0,0,0,23.13-44.3V33.233a2.865,2.865,0,0,0-2.091-2.875Zm-31.82,9.932a6.274,6.274,0,0,1,6.273-6.273h3.79a6.274,6.274,0,0,1,6.273,6.273v5.227l-3.528-.457V40.225a2.761,2.761,0,0,0-2.744-2.744h-3.79a2.761,2.761,0,0,0-2.744,2.744V45.06l-3.528.457Zm19.928,20.647a2.824,2.824,0,0,1-2.483,2.81l-8.951,1.111h-.653l-8.951-1.111a2.824,2.824,0,0,1-2.483-2.81V50.026a2.824,2.824,0,0,1,2.483-2.81l8.951-1.045h.653l8.951,1.045a2.88,2.88,0,0,1,2.483,2.81Z" transform="translate(0 0)"></path>
  </g>
</svg>
