<?xml version="1.0" encoding="UTF-8"?>
<svg xmlns="http://www.w3.org/2000/svg" width="52.778" height="65.01" viewBox="0 0 52.778 65.01">
  <defs>
    <style>
      .cls-1 {
        fill: #fff;
      }
    </style>
  </defs>
  <path id="noun-electronics-5478650-FFFFFF" class="cls-1" d="M205.145,103.265h-9.714a1.119,1.119,0,0,1-1.121-1.121V99.619H176.16v43.392h20.616V107.016A1.119,1.119,0,0,1,197.9,105.9h7.248v-2.63Zm-21.774,14.452a1.121,1.121,0,0,1-2.242,0V105.708a1.121,1.121,0,0,1,2.242,0Zm-7.2-20.34h18.15V81.117A1.119,1.119,0,0,1,195.439,80h9.714V78H176.16V97.369Zm4.962-13.286a1.121,1.121,0,0,1,2.242,0V92.5a1.121,1.121,0,0,1-2.242,0V84.091Zm17.9,32.871V143.01h27.453V116.962H199.025Zm13.727,1.3a11.724,11.724,0,1,1-11.724,11.724,11.739,11.739,0,0,1,11.724-11.724Zm-13.727-10.125v6.583h27.453v-6.583H199.025Zm14.063,2H215.2a1.121,1.121,0,0,1,0,2.242h-2.115A1.121,1.121,0,0,1,213.088,110.139Zm-5.32,1.121a1.134,1.134,0,0,1-1.121,1.121h-2.115a1.121,1.121,0,0,1,0-2.242h2.115A1.134,1.134,0,0,1,207.768,111.26Zm-1.5,11.821a9.477,9.477,0,1,0,15.968,6.9A9.449,9.449,0,0,0,206.266,123.082ZM218.61,128.3l-6.7,6.7a1.12,1.12,0,0,1-1.584-1.584l6.7-6.7A1.12,1.12,0,0,1,218.61,128.3Zm-9.6-.8,3.609-3.616a1.12,1.12,0,0,1,1.584,1.584l-3.609,3.616A1.12,1.12,0,0,1,209.008,127.5Zm5.485-24.016v2.294h-2.705v-2.294Zm-17.94-21.244v18.786h32.385V82.238Zm25.585,11.029L216.4,99.006a1.12,1.12,0,0,1-1.584-1.584l5.739-5.739A1.12,1.12,0,0,1,222.138,93.267Zm-4.2-7.017C205.691,98.5,206.117,98.266,205.452,98.266a1.129,1.129,0,0,1-.792-1.913l11.687-11.687a1.12,1.12,0,0,1,1.584,1.584Zm-9.871-1.143a1.114,1.114,0,0,1,0,1.584c-6.172,6.18-5.866,6.068-6.523,6.068a1.122,1.122,0,0,1-.792-1.913l5.731-5.739a1.156,1.156,0,0,1,1.584,0Z" transform="translate(-176.16 -78.001)"></path>
</svg>
