<?xml version="1.0" encoding="UTF-8"?>
<svg xmlns="http://www.w3.org/2000/svg" width="56.762" height="59.231" viewBox="0 0 56.762 59.231">
  <defs>
    <style>
      .cls-1 {
        fill: #fff;
      }
    </style>
  </defs>
  <g id="noun-agricultural-3451750-FFFFFF" transform="translate(-316.61 -316.609)">
    <path id="Path_663" data-name="Path 663" class="cls-1" d="M351.16,631.02a4.956,4.956,0,0,1,4.936,4.936c0,2.71-2.629,4.95-5.339,4.947l-13.17-.012a1.233,1.233,0,1,1,0-2.467h13.576a2.467,2.467,0,0,0,0-4.934c-6.667,0-10.633-1.666-14.1-2.726a19.421,19.421,0,0,0-6.035-.961c-2.753,0-4.619,1.065-6.6,2.284s-3.709,2.666-6.586,2.655a1.234,1.234,0,0,0-1.234,1.234v9.868a1.237,1.237,0,0,0,1.234,1.234l2.5-.012a36.679,36.679,0,0,1,12.284,1.8,33.928,33.928,0,0,0,11.145,1.9,18.745,18.745,0,0,0,13.219-5.3l15.3-15.527a.374.374,0,0,0,.026-.027,3.931,3.931,0,0,0,1.053-2.559v-.029a3.728,3.728,0,0,0-3.7-3.706c-2.468,0-8.41.03-9.872,0a3.516,3.516,0,0,0-2.468,1.234c-2.371,2.511-4.728,4.727-6.17,6.17Z" transform="translate(0 -274.926)"></path>
    <path id="Path_664" data-name="Path 664" class="cls-1" d="M388.7,316.609a1.234,1.234,0,0,0-1.246,1.246,60.7,60.7,0,0,0,.465,6.389c.438,3.406,1.078,7.231,3.2,9.356a9.443,9.443,0,0,0,10.947,1.723,22.718,22.718,0,0,0-6.43-5.227h0a1.234,1.234,0,1,1,.916-2.292,22.259,22.259,0,0,1,7.385,5.912c1.878,2.4,3.258,5.088,3.258,7.556v6.168a1.234,1.234,0,1,0,2.468,0v-6.168c0-2.468,1.381-5.153,3.258-7.556a22.26,22.26,0,0,1,7.385-5.912,1.234,1.234,0,1,1,.916,2.292,22.722,22.722,0,0,0-6.43,5.228A9.444,9.444,0,0,0,425.74,333.6c2.126-2.125,2.765-5.95,3.2-9.356a60.617,60.617,0,0,0,.465-6.389h0a1.234,1.234,0,0,0-1.246-1.246,60.621,60.621,0,0,0-6.389.465c-3.406.438-7.231,1.078-9.356,3.2a9.443,9.443,0,0,0-1.285,11.71,21.013,21.013,0,0,0-2.7,4.206,21.011,21.011,0,0,0-2.7-4.206,9.443,9.443,0,0,0-1.285-11.71c-2.125-2.125-5.95-2.765-9.356-3.2a60.629,60.629,0,0,0-6.389-.465Z" transform="translate(-63.44)"></path>
  </g>
</svg>
