<?xml version="1.0" encoding="UTF-8"?>
<svg xmlns="http://www.w3.org/2000/svg" width="37.183" height="72.196" viewBox="0 0 37.183 72.196">
  <defs>
    <style>
      .cls-1 {
        fill: #fff;
      }
    </style>
  </defs>
  <g id="noun-lighting-3194410-FFFFFF" transform="translate(-306.624 -29.999)">
    <path id="Path_656" data-name="Path 656" class="cls-1" d="M471.327,962.4H454.438a.844.844,0,0,0-.837.837v5.934a.844.844,0,0,0,.837.837h1.978a6.556,6.556,0,0,0,12.933,0h1.978a.844.844,0,0,0,.837-.837v-5.934a.794.794,0,0,0-.837-.837Z" transform="translate(-137.659 -873.29)"></path>
    <path id="Path_657" data-name="Path 657" class="cls-1" d="M567.405,39.813a2.208,2.208,0,0,0,2.206-2.206v-5.4a2.206,2.206,0,0,0-4.413,0v5.4A2.208,2.208,0,0,0,567.405,39.813Z" transform="translate(-242.182)"></path>
    <path id="Path_658" data-name="Path 658" class="cls-1" d="M328.946,101.168a2.169,2.169,0,0,0,1.9,1.065,1.746,1.746,0,0,0,1.065-.3,2.238,2.238,0,0,0,.837-2.967l-2.739-4.717a2.18,2.18,0,0,0-3.8,2.13Z" transform="translate(-18.101 -59.149)"></path>
    <path id="Path_659" data-name="Path 659" class="cls-1" d="M763.346,103.753a1.9,1.9,0,0,0,1.065.3,2.169,2.169,0,0,0,1.9-1.065l2.739-4.717a2.18,2.18,0,1,0-3.8-2.13l-2.739,4.717A2.1,2.1,0,0,0,763.346,103.753Z" transform="translate(-426.711 -60.897)"></path>
    <path id="Path_660" data-name="Path 660" class="cls-1" d="M326.06,250.453a18.578,18.578,0,0,0-15.672,7.3,17.261,17.261,0,0,0-3.652,9.053,18.7,18.7,0,0,0,3.88,13.694,27.442,27.442,0,0,1,4.717,8.368l.38,1.141a1.3,1.3,0,0,0,1.217.913h16.585a1.3,1.3,0,0,0,1.217-.913l.38-1.141a27.157,27.157,0,0,1,4.489-8.14,19.679,19.679,0,0,0,3.652-7.227,18.638,18.638,0,0,0-17.193-23.051Zm10.879,21.53a2.194,2.194,0,0,1-2.13,1.674,1.3,1.3,0,0,1-.532-.076,2.177,2.177,0,0,1-1.6-2.663,7.737,7.737,0,0,0-7.075-9.586,2.208,2.208,0,0,1-2.13-2.282,2.26,2.26,0,0,1,2.282-2.13,12.075,12.075,0,0,1,9.129,4.945,11.68,11.68,0,0,1,2.054,10.118Z" transform="translate(0 -206.456)"></path>
  </g>
</svg>
