<?xml version="1.0" encoding="UTF-8"?>
<svg xmlns="http://www.w3.org/2000/svg" width="68.331" height="68.33" viewBox="0 0 68.331 68.33">
  <defs>
    <style>
      .cls-1 {
        fill: #fff;
      }
    </style>
  </defs>
  <g id="noun-hvac-2249022-FFFFFF" transform="translate(0 0.006)">
    <path id="Path_621" data-name="Path 621" class="cls-1" d="M345.823,322.256h-1.351a12.721,12.721,0,0,0-1.105-2.674l.961-.966a2.532,2.532,0,0,0,.715-1.938,2.94,2.94,0,0,0-.849-1.868l-1.212-1.217a2.663,2.663,0,0,0-3.779-.134l-.956.961a12.714,12.714,0,0,0-2.658-1.105v-1.367a2.687,2.687,0,0,0-2.771-2.594h-1.7a2.69,2.69,0,0,0-2.771,2.594v1.367a12.667,12.667,0,0,0-2.653,1.105l-.956-.961a2.67,2.67,0,0,0-3.785.133l-1.206,1.217a2.9,2.9,0,0,0-.849,1.868,2.539,2.539,0,0,0,.715,1.938l.956.966a13,13,0,0,0-1.1,2.674h-1.356a2.692,2.692,0,0,0-2.578,2.787v1.719a2.692,2.692,0,0,0,2.578,2.787h1.356a13,13,0,0,0,1.1,2.674l-.961.966a2.556,2.556,0,0,0-.71,1.938,2.889,2.889,0,0,0,.849,1.868l1.206,1.217a2.664,2.664,0,0,0,3.779.133l.961-.961a12.553,12.553,0,0,0,2.653,1.105v1.367a2.69,2.69,0,0,0,2.771,2.594h1.7a2.687,2.687,0,0,0,2.771-2.594V338.49a12.6,12.6,0,0,0,2.658-1.105l.956.961a2.675,2.675,0,0,0,3.785-.133l1.2-1.217a2.906,2.906,0,0,0,.854-1.868,2.539,2.539,0,0,0-.715-1.938l-.961-.966a12.844,12.844,0,0,0,1.105-2.674h1.351a2.692,2.692,0,0,0,2.578-2.787v-1.719a2.692,2.692,0,0,0-2.578-2.787Zm-13.853,10.052a6.385,6.385,0,1,1,4.5-1.887,6.405,6.405,0,0,1-4.5,1.887Z" transform="translate(-297.565 -291.743)"></path>
    <path id="Path_622" data-name="Path 622" class="cls-1" d="M796.737,6.216A5.149,5.149,0,0,0,796.4,2.43a4.6,4.6,0,0,0-4.12-2.436A5.6,5.6,0,0,0,789.12,1c-2.6,1.794-1.479,4.017-1.479,4.017.73,1.269,1.986,2.3,3.045,3.742a4,4,0,0,0-.74.668c-.428-.249-.941-.5-1.072-.563a8.006,8.006,0,0,0-1.656-.657A6.113,6.113,0,0,0,785.669,8a4.475,4.475,0,0,0-2.21.546c-2.77,1.559-3.043,4.948-1.418,7.332a3.391,3.391,0,0,0,2.832,1.73,2.772,2.772,0,0,0,1.157-.241c1.256-.734,2.28-1.993,3.7-3.058a3.983,3.983,0,0,0,.678.731c-.248.432-.494.953-.562,1.085A8.139,8.139,0,0,0,789.2,17.8a5.15,5.15,0,0,0,.336,3.786,4.6,4.6,0,0,0,4.12,2.436,5.6,5.6,0,0,0,3.161-1.008c2.6-1.794,1.479-4.017,1.479-4.017-.73-1.269-1.986-2.3-3.045-3.742a3.985,3.985,0,0,0,.74-.668c.427.249.941.5,1.072.563a8.01,8.01,0,0,0,1.656.657,6.116,6.116,0,0,0,1.549.208,4.474,4.474,0,0,0,2.21-.546c2.77-1.559,3.043-4.948,1.418-7.332a3.392,3.392,0,0,0-2.832-1.73h0a2.772,2.772,0,0,0-1.157.241c-1.257.734-2.28,1.993-3.7,3.058a3.991,3.991,0,0,0-.678-.731c.248-.432.494-.953.562-1.085h0a8.136,8.136,0,0,0,.653-1.668Zm-3.769,7.616a1.827,1.827,0,1,1,1.862-1.827,1.846,1.846,0,0,1-1.862,1.827Z" transform="translate(-736.567)"></path>
    <path id="Path_623" data-name="Path 623" class="cls-1" d="M35.244,758.357a1.061,1.061,0,0,0,1.006.73,1.047,1.047,0,0,0,.335-.055,1.07,1.07,0,0,0,.671-1.351c-.054-.162-.106-.326-.158-.489a1.061,1.061,0,1,0-2.021.645q.082.261.167.519Z" transform="translate(-33.03 -713.38)"></path>
    <path id="Path_624" data-name="Path 624" class="cls-1" d="M386.2,32.951c-.171.061-.342.123-.512.186h0a1.069,1.069,0,0,0,.37,2.069,1.057,1.057,0,0,0,.369-.067q.239-.089.479-.175a1.069,1.069,0,0,0,.647-1.362,1.058,1.058,0,0,0-1.353-.651Z" transform="translate(-363.076 -31.023)"></path>
    <path id="Path_625" data-name="Path 625" class="cls-1" d="M17.5,685.933a1.061,1.061,0,1,0,2.081-.41c-.032-.167-.064-.334-.093-.5h0a1.06,1.06,0,1,0-2.088.37q.048.272.1.542Z" transform="translate(-16.394 -645.189)"></path>
    <path id="Path_626" data-name="Path 626" class="cls-1" d="M318.544,62.233q-.241.123-.48.25a1.071,1.071,0,0,0-.446,1.441,1.055,1.055,0,0,0,1.432.449q.226-.119.453-.235a1.072,1.072,0,0,0,.467-1.435,1.058,1.058,0,0,0-1.425-.47Z" transform="translate(-299.417 -58.587)"></path>
    <path id="Path_627" data-name="Path 627" class="cls-1" d="M1090,295.569c-.087-.16-.175-.319-.264-.477a1.057,1.057,0,0,0-1.446-.4,1.073,1.073,0,0,0-.4,1.456q.126.222.248.447a1.056,1.056,0,0,0,1.439.424,1.072,1.072,0,0,0,.421-1.449Z" transform="translate(-1025.815 -277.785)"></path>
    <path id="Path_628" data-name="Path 628" class="cls-1" d="M9.124,611.866a1.063,1.063,0,0,0,1.057,1l.07,0h0a1.065,1.065,0,0,0,.989-1.135q-.016-.256-.029-.512a1.06,1.06,0,1,0-2.118.1q.013.274.031.547Z" transform="translate(-8.574 -575.462)"></path>
    <path id="Path_629" data-name="Path 629" class="cls-1" d="M1158.977,507.722a1.06,1.06,0,0,0,1.054-1.189c-.021-.181-.043-.362-.066-.543a1.06,1.06,0,1,0-2.1.277q.033.254.062.509h0a1.063,1.063,0,0,0,1.052.946Z" transform="translate(-1091.923 -476.306)"></path>
    <path id="Path_630" data-name="Path 630" class="cls-1" d="M1143.58,433.4c.044.165.086.332.127.5h0a1.06,1.06,0,0,0,1.028.809,1.041,1.041,0,0,0,.257-.032,1.068,1.068,0,0,0,.772-1.294q-.065-.265-.134-.529h0a1.061,1.061,0,1,0-2.05.546Z" transform="translate(-1078.427 -407.46)"></path>
    <path id="Path_631" data-name="Path 631" class="cls-1" d="M450.48,1146.177c-.165-.038-.329-.077-.494-.117a1.067,1.067,0,0,0-.506,2.074q.265.066.532.126a1.032,1.032,0,0,0,.235.026,1.068,1.068,0,0,0,.233-2.109Z" transform="translate(-423.123 -1080.78)"></path>
    <path id="Path_632" data-name="Path 632" class="cls-1" d="M9.536,536.692q-.021.272-.038.545a1.065,1.065,0,0,0,.993,1.132l.067,0a1.064,1.064,0,0,0,1.057-1q.016-.257.035-.514a1.06,1.06,0,1,0-2.114-.164Z" transform="translate(-8.955 -505.208)"></path>
    <path id="Path_633" data-name="Path 633" class="cls-1" d="M19.785,464.672a1.062,1.062,0,0,0,1.04-.866c.032-.168.065-.336.1-.5a1.061,1.061,0,1,0-2.075-.439q-.055.268-.107.537h0a1.063,1.063,0,0,0,1.042,1.269Z" transform="translate(-17.656 -435.715)"></path>
    <path id="Path_634" data-name="Path 634" class="cls-1" d="M261.429,101.7a1.07,1.07,0,0,0,.162-1.384,1.057,1.057,0,0,0-1.473-.282q-.224.153-.444.309a1.055,1.055,0,0,0-.162.141,3.515,3.515,0,0,1,1.917,1.216Z" transform="translate(-244.735 -94.174)"></path>
    <path id="Path_635" data-name="Path 635" class="cls-1" d="M457.072,12.784q-.268.057-.534.118a1.067,1.067,0,0,0,.476,2.081q.247-.057.495-.11a1.067,1.067,0,0,0-.437-2.089Z" transform="translate(-429.76 -12.041)"></path>
    <path id="Path_636" data-name="Path 636" class="cls-1" d="M1163.781,579.38a1.063,1.063,0,0,0-1.06,1.068v.107q0,.257,0,.513a1.064,1.064,0,0,0,1.043,1.085h.018a1.064,1.064,0,0,0,1.06-1.051c0-.182,0-.364,0-.555v-.1a1.063,1.063,0,0,0-1.06-1.068Z" transform="translate(-1096.51 -546.394)"></path>
    <path id="Path_637" data-name="Path 637" class="cls-1" d="M1143.673,730.521q.072-.263.141-.526a1.061,1.061,0,1,0-2.051-.541q-.065.25-.134.5a1.061,1.061,0,1,0,2.044.569Z" transform="translate(-1076.585 -687.172)"></path>
    <path id="Path_638" data-name="Path 638" class="cls-1" d="M1158.957,657.285c.026-.181.05-.362.073-.544h0a1.06,1.06,0,1,0-2.1-.27q-.032.255-.068.508a1.067,1.067,0,0,0,.9,1.209,1.061,1.061,0,0,0,1.2-.9Z" transform="translate(-1090.974 -618.217)"></path>
    <path id="Path_639" data-name="Path 639" class="cls-1" d="M670.416,1155.095c-.168.028-.336.053-.5.078a1.068,1.068,0,0,0,.152,2.124,1.119,1.119,0,0,0,.154-.011q.269-.04.536-.083h0a1.068,1.068,0,0,0-.338-2.108Z" transform="translate(-630.91 -1089.316)"></path>
    <path id="Path_640" data-name="Path 640" class="cls-1" d="M596.9,1162.2q-.254.009-.51.013a1.068,1.068,0,0,0,.018,2.135h.019c.181,0,.361-.008.541-.014h0a1.068,1.068,0,0,0-.069-2.134Z" transform="translate(-561.448 -1096.023)"></path>
    <path id="Path_641" data-name="Path 641" class="cls-1" d="M603.781.246a1.053,1.053,0,0,0-1.091,1.036,1.064,1.064,0,0,0,1.028,1.1q.256.008.51.019h.048a1.068,1.068,0,0,0,.046-2.134c-.18-.008-.361-.015-.542-.02Z" transform="translate(-568.372 -0.237)"></path>
    <path id="Path_642" data-name="Path 642" class="cls-1" d="M523.188,1159.035q-.254-.024-.508-.053a1.068,1.068,0,0,0-.232,2.123q.269.029.54.056c.034,0,.068,0,.1,0a1.068,1.068,0,0,0,.1-2.131Z" transform="translate(-491.809 -1092.989)"></path>
    <path id="Path_643" data-name="Path 643" class="cls-1" d="M529.857,4.134a.966.966,0,0,0,.1-.005q.254-.025.509-.046h0a1.068,1.068,0,0,0-.175-2.128q-.271.023-.541.049h0a1.068,1.068,0,0,0,.1,2.13Z" transform="translate(-498.687 -1.846)"></path>
    <path id="Path_644" data-name="Path 644" class="cls-1" d="M749.171,25.588q.245.073.488.149a1.067,1.067,0,0,0,.632-2.038q-.259-.081-.52-.158a1.067,1.067,0,0,0-.6,2.048Z" transform="translate(-705.794 -22.167)"></path>
    <path id="Path_645" data-name="Path 645" class="cls-1" d="M812.2,1112.884q-.232.1-.465.2a1.069,1.069,0,0,0,.415,2.051,1.045,1.045,0,0,0,.414-.086c.166-.071.332-.144.5-.217a1.07,1.07,0,0,0,.539-1.409,1.057,1.057,0,0,0-1.4-.543Z" transform="translate(-764.9 -1049.434)"></path>
    <path id="Path_646" data-name="Path 646" class="cls-1" d="M742.6,1138.585q-.244.073-.489.142h0a1.069,1.069,0,0,0,.284,2.1,1.041,1.041,0,0,0,.285-.04q.262-.073.522-.151h0a1.067,1.067,0,0,0-.6-2.048Z" transform="translate(-699.117 -1073.717)"></path>
    <path id="Path_647" data-name="Path 647" class="cls-1" d="M678.053,7.264q-.267-.047-.536-.09a1.067,1.067,0,0,0-.331,2.109q.252.04.5.085a1.068,1.068,0,0,0,.363-2.1Z" transform="translate(-637.782 -6.76)"></path>
    <path id="Path_648" data-name="Path 648" class="cls-1" d="M16.782,24.578a8.327,8.327,0,0,0,5.758-2.231,9.2,9.2,0,0,0,1.86-10.8,22.1,22.1,0,0,0-1.268-2.425,1.305,1.305,0,0,0-2.465.358,3.89,3.89,0,0,1-.156.459,5.791,5.791,0,0,1-.055-1.217c.007-.273.012-.524,0-.732A11.138,11.138,0,0,0,17.2.455,1.327,1.327,0,0,0,15.716.122a1.361,1.361,0,0,0-.772,1.343c0,.613-.272,2.4-2.7,5.756C9.879,10.5,6.985,15.4,9.172,20.1h0a8.012,8.012,0,0,0,5.887,4.317,9.33,9.33,0,0,0,1.723.161Zm.282-23.107v0L16,1.47ZM12.176,20.683a5.012,5.012,0,0,1-1.083-1.49c-1.711-3.678.818-7.877,2.869-10.715a17.914,17.914,0,0,0,2.82-5.265,9.831,9.831,0,0,1,1.558,4.909c.01.157,0,.345,0,.549-.027,1.074-.078,3.073,1.752,3.624a1.645,1.645,0,0,0,1.28-.138,2.126,2.126,0,0,0,.674-.616q.216.429.426.894a7.066,7.066,0,0,1-.872,7.8h0a5.944,5.944,0,0,0-.468-3.187,12.282,12.282,0,0,0-.662-1.325,1.206,1.206,0,0,0-1.209-.636c-.027,0-.054.008-.081.014a6.386,6.386,0,0,0-1.763-4.03,1.189,1.189,0,0,0-1.318-.287,1.215,1.215,0,0,0-.716,1.172A5.572,5.572,0,0,1,14.121,14.7c-1.059,1.535-2.307,3.721-1.945,5.986Z" transform="translate(-7.918 -0.026)"></path>
    <path id="Path_649" data-name="Path 649" class="cls-1" d="M380.075,1127.618l-.092-.035h0a3.169,3.169,0,0,1-1.819.77,1.065,1.065,0,0,0,.672,1.077q.254.1.51.193a1.055,1.055,0,0,0,1.36-.635,1.069,1.069,0,0,0-.631-1.369Z" transform="translate(-356.627 -1063.382)"></path>
    <path id="Path_650" data-name="Path 650" class="cls-1" d="M22.185,787.273a1.072,1.072,0,0,0-.374-1.462l-1.658-.986,1.62-.141a1.065,1.065,0,0,0,.965-1.155,1.053,1.053,0,0,0-1.147-.972l-4.582.4-3.314-1.971,3.314-1.971,4.582.4h0a.849.849,0,0,0,.092,0,1.068,1.068,0,0,0,.09-2.131l-1.62-.141,1.5-.894a1.072,1.072,0,0,0,.374-1.462,1.056,1.056,0,0,0-1.452-.376l-1.655.984.6-1.483a1.07,1.07,0,0,0-.584-1.391,1.057,1.057,0,0,0-1.381.588l-1.642,4.076-3.651,2.171v-3.926L15.2,771.81a1.073,1.073,0,0,0-.15-1.5,1.054,1.054,0,0,0-1.492.15l-1.3,1.6v-2.283a1.06,1.06,0,1,0-2.12,0v2.283l-1.3-1.6a1.056,1.056,0,0,0-1.492-.15,1.073,1.073,0,0,0-.149,1.5l2.941,3.621v3.441l-3.464-2.06-1.491-3.7a1.058,1.058,0,0,0-1.381-.588,1.071,1.071,0,0,0-.584,1.391l.447,1.109-1.026-.611a1.055,1.055,0,0,0-1.452.376,1.071,1.071,0,0,0,.374,1.462l1.443.858-2.037.177h0a1.068,1.068,0,0,0,.09,2.131.9.9,0,0,0,.092,0l4.92-.427c.023,0,.044-.01.067-.014l3.387,2.014-3.314,1.971-4.582-.4h0a1.067,1.067,0,0,0-.182,2.127l1.62.141-1.658.986a1.071,1.071,0,0,0-.374,1.462,1.055,1.055,0,0,0,1.452.376l1.81-1.076-.6,1.484h0a1.07,1.07,0,0,0,.584,1.391,1.055,1.055,0,0,0,1.381-.588l1.642-4.076,2.835-1.686v3.622L7.2,790.341a1.072,1.072,0,0,0,.149,1.5,1.054,1.054,0,0,0,1.492-.151l1.3-1.6v2.1a1.06,1.06,0,1,0,2.12,0v-2.1l1.3,1.6a1.055,1.055,0,0,0,1.492.151,1.072,1.072,0,0,0,.15-1.5l-2.941-3.622v-4.107l3.651,2.171,1.642,4.076a1.061,1.061,0,1,0,1.965-.8l-.6-1.484,1.81,1.076h0a1.045,1.045,0,0,0,.538.149,1.059,1.059,0,0,0,.914-.525Z" transform="translate(0 -724.94)"></path>
    <path id="Path_651" data-name="Path 651" class="cls-1" d="M877.254,1088.4a1.054,1.054,0,0,0,.62.482,9.51,9.51,0,0,1-.355-1.859,1.069,1.069,0,0,0-.265,1.377Z" transform="translate(-827.166 -1025.13)"></path>
    <path id="Path_652" data-name="Path 652" class="cls-1" d="M1125.663,801.321q.106-.252.208-.507a1.071,1.071,0,0,0-.584-1.39,1.056,1.056,0,0,0-1.275.39,17.673,17.673,0,0,0,1.048,2.081A1.054,1.054,0,0,0,1125.663,801.321Z" transform="translate(-1060.009 -753.835)"></path>
    <path id="Path_653" data-name="Path 653" class="cls-1" d="M929.9,770.446c-.195-.751-.436-1.685-1.389-1.693H928.5c-.943,0-1.2.937-1.389,1.621a26.342,26.342,0,0,1-2.8,5.836c-1.892,3.27-3.849,6.65-3.537,10.44.285,3.454,2.887,6.03,6.629,6.564a9.106,9.106,0,0,0,1.285.09c2.918,0,6.162-1.357,7.4-4.635,1.7-4.494-.889-8.628-3.174-12.275a22.984,22.984,0,0,1-3.017-5.949Zm1.562,17.4h0a1.061,1.061,0,1,1-1.959-.817c.811-1.97-.629-4.331-.644-4.354h0a1.072,1.072,0,0,1,.322-1.474,1.054,1.054,0,0,1,1.464.324c.085.133,2.06,3.3.817,6.322Z" transform="translate(-868.313 -724.985)"></path>
    <path id="Path_654" data-name="Path 654" class="cls-1" d="M819.879,49.317q-.247-.113-.495-.224a1.058,1.058,0,0,0-1.4.547,1.07,1.07,0,0,0,.544,1.408q.235.1.468.212a1.027,1.027,0,0,0,1.141-.183,5.2,5.2,0,0,1-.06-1.637,1.048,1.048,0,0,0-.2-.123Z" transform="translate(-771.325 -46.218)"></path>
    <path id="Path_655" data-name="Path 655" class="cls-1" d="M1120.718,363.368a1.061,1.061,0,1,0,1.976-.775q-.1-.255-.2-.508h0a1.049,1.049,0,0,0-1.8-.272,5.046,5.046,0,0,1-.224.881,1.054,1.054,0,0,0,.058.2q.1.238.189.477Z" transform="translate(-1056.671 -340.844)"></path>
  </g>
</svg>
