<?xml version="1.0" encoding="UTF-8"?>
<svg xmlns="http://www.w3.org/2000/svg" width="64.11" height="65" viewBox="0 0 64.11 65">
  <defs>
    <style>
      .cls-1 {
        opacity: 0.95;
      }

      .cls-2 {
        fill: #fff;
      }
    </style>
  </defs>
  <g id="noun_medical_1061791" class="cls-1" transform="translate(-1.631 -1.027)">
    <path id="Path_398" data-name="Path 398" class="cls-2" d="M3.667,27.149a54.818,54.818,0,0,0,9.885.929,45.476,45.476,0,0,0,17.515-3.384v11.08l3.914,1.858,1.327.663v-13.6a45.41,45.41,0,0,0,17.515,3.317,54.818,54.818,0,0,0,9.885-.929,2.557,2.557,0,0,0,1.99-1.99A2.5,2.5,0,0,0,64.505,22.5,32.99,32.99,0,0,1,53.558,12.487a3.257,3.257,0,0,0-2.256-1.46,3.44,3.44,0,0,0-2.654.663,44.053,44.053,0,0,1-12.207,6.17V13.88a6.674,6.674,0,0,0,3.516-8.757A6.8,6.8,0,0,0,31.134,1.54,6.651,6.651,0,0,0,27.618,10.3a6.521,6.521,0,0,0,3.516,3.516v3.981a43.544,43.544,0,0,1-12.274-6.17,3.44,3.44,0,0,0-2.654-.663,3.257,3.257,0,0,0-2.256,1.46A32.983,32.983,0,0,1,2.871,22.5a2.449,2.449,0,0,0-1.194,2.587A2.549,2.549,0,0,0,3.667,27.149Z" transform="translate(0 0)"></path>
    <path id="Path_399" data-name="Path 399" class="cls-2" d="M51.308,88.37V77.755L46,75.3V88.37a2.654,2.654,0,1,0,5.308,0Z" transform="translate(-14.932 -24.997)"></path>
    <path id="Path_400" data-name="Path 400" class="cls-2" d="M57,53.77l6.1,2.853a6.624,6.624,0,0,0,2.388-9.089,6.887,6.887,0,0,0-2.853-2.654,2.631,2.631,0,0,0-2.919,4.379,2.075,2.075,0,0,0,.663.332,1.433,1.433,0,0,1,.663,1.858,1.6,1.6,0,0,1-.663.663Z" transform="translate(-18.635 -14.613)"></path>
    <path id="Path_401" data-name="Path 401" class="cls-2" d="M32.589,81.243a2.657,2.657,0,0,0,2.256-4.777,1.433,1.433,0,0,1-.663-1.858,1.6,1.6,0,0,1,.663-.663l3.384-1.592-6.1-2.853a6.624,6.624,0,0,0-2.388,9.089A6.511,6.511,0,0,0,32.589,81.243Z" transform="translate(-9.151 -23.045)"></path>
    <path id="Path_402" data-name="Path 402" class="cls-2" d="M34.827,49.675a2.644,2.644,0,1,0-1.592-5.042,3.1,3.1,0,0,0-.663.332,6.67,6.67,0,0,0-3.185,8.824,6.744,6.744,0,0,0,3.185,3.185l7.63,3.583L50.816,65.6a1.433,1.433,0,0,1,.663,1.858,1.6,1.6,0,0,1-.663.663,2.644,2.644,0,0,0,1.592,5.042,3.1,3.1,0,0,0,.663-.332,6.67,6.67,0,0,0,3.185-8.824,6.744,6.744,0,0,0-3.185-3.185L42.457,55.845l-7.63-3.583a1.433,1.433,0,0,1-.663-1.858,1.206,1.206,0,0,1,.663-.73Z" transform="translate(-9.133 -14.631)"></path>
  </g>
</svg>
