<?xml version="1.0" encoding="UTF-8"?>
<svg xmlns="http://www.w3.org/2000/svg" width="77.721" height="88.172" viewBox="0 0 77.721 88.172">
  <defs>
    <style>
      .cls-1 {
        fill: #fff;
        fill-rule: evenodd;
      }
    </style>
  </defs>
  <path id="noun-products-5438748" class="cls-1" d="M143.824,93.69v7.2a.541.541,0,0,0,.277.48l5.631,3.251a.554.554,0,0,0,.832-.48V94.528L173.805,81.11l7.326,4.23a1.8,1.8,0,0,1,.924,1.6v24.7a1.806,1.806,0,0,1-.924,1.6l-21.394,12.35a1.806,1.806,0,0,1-1.848,0L136.5,113.243a1.8,1.8,0,0,1-.924-1.6V89.288l6.6,3.811a4.853,4.853,0,0,0,1.649.59ZM145.5,37.931a1.806,1.806,0,0,0-1.848,0L122.259,50.282a1.8,1.8,0,0,0-.924,1.6v24.7a1.806,1.806,0,0,0,.924,1.6l21.392,12.351a1.806,1.806,0,0,0,1.848,0l21.392-12.351a1.8,1.8,0,0,0,.924-1.6v-24.7a1.806,1.806,0,0,0-.924-1.6l-7.326-4.23-23.24,13.418v9.607a.554.554,0,0,1-.832.48l-5.631-3.251a.541.541,0,0,1-.277-.48V55.581l23.241-13.419ZM118.378,69.257,112.586,72.6V82.848a.541.541,0,0,0,.277.48l5.631,3.251a.554.554,0,0,0,.832-.48V79.461a4.82,4.82,0,0,0,1.455,1.286l11.835,6.832v17.6l-4.114,2.376a1.806,1.806,0,0,1-1.848,0l-21.395-12.35a1.8,1.8,0,0,1-.924-1.6v-24.7a1.806,1.806,0,0,1,.924-1.6l13.118-7.574Z" transform="translate(-104.335 -37.677)"></path>
</svg>
