<?xml version="1.0" encoding="UTF-8"?>
<svg xmlns="http://www.w3.org/2000/svg" width="76.829" height="76.18" viewBox="0 0 76.829 76.18">
  <defs>
    <style>
      .cls-1 {
        fill: #fff;
        fill-rule: evenodd;
      }
    </style>
  </defs>
  <path id="noun-service-5921383" class="cls-1" d="M116.312,102.877a11.145,11.145,0,1,1-3.265,7.881A11.145,11.145,0,0,1,116.312,102.877Zm-5.141-8.283-1.57,1.571-1.57,1.571,2.479,3.3a.96.96,0,0,1,.043,1.091,15.953,15.953,0,0,0-2.111,5.091.961.961,0,0,1-.807.745l-4.087.578v4.436l4.088.578h0a.963.963,0,0,1,.818.8,16.006,16.006,0,0,0,2.1,5.039.962.962,0,0,1-.09,1.156l-2.432,3.237,3.14,3.14,3.3-2.476a.96.96,0,0,1,1.091-.043,15.972,15.972,0,0,0,5.092,2.111.959.959,0,0,1,.744.807l.577,4.086h4.437l.581-4.092a.962.962,0,0,1,.8-.818,16.139,16.139,0,0,0,2.589-.825,15.9,15.9,0,0,0,2.451-1.275.963.963,0,0,1,1.156.09l3.234,2.432,3.14-3.14-2.479-3.3a.959.959,0,0,1-.043-1.091,15.937,15.937,0,0,0,1.275-2.451,16.131,16.131,0,0,0,.836-2.641.961.961,0,0,1,.807-.745l4.082-.577v-4.438l-4.083-.577a.962.962,0,0,1-.818-.8,15.97,15.97,0,0,0-2.1-5.04.963.963,0,0,1,.09-1.156l2.432-3.234-1.57-1.57-1.567-1.571-3.3,2.481a.962.962,0,0,1-1.091.043,15.99,15.99,0,0,0-5.092-2.11.961.961,0,0,1-.744-.807l-.581-4.08h-4.437L121.4,94.2h0a.963.963,0,0,1-.8.818,16,16,0,0,0-5.039,2.1.964.964,0,0,1-1.156-.09Zm16.584,67.017v1.32a3.384,3.384,0,0,0,3.371,3.37h17.936a3.382,3.382,0,0,0,3.371-3.37v-1.319a3.383,3.383,0,0,0-3.371-3.37H131.124a3.384,3.384,0,0,0-3.371,3.37Zm23.756-23.925a.963.963,0,0,1-1.379-1.345c.337-.345.793-.775,1.277-1.234s1-.948,1.561-1.518c1.989-2.039,3.718-4.45,1.594-6.522-2.1-2.049-4.558-.289-7.089,2.306-.831.852-1.641,1.76-2.453,2.667-2.206,2.47-4.408,4.936-6.647,5.978h0A12.172,12.172,0,0,0,131.655,145q-1.629,4.518-.116,11.322h17.3l-.014-.288c-.09-1.736-.195-3.932.825-5.23.813-1.034,1.86-2.254,3-3.586,4.583-5.333,10.745-12.5,9.879-17.531l-3.877-22.519a4.033,4.033,0,0,0-1.4-2.462,3.764,3.764,0,0,0-2.612-.834l-.161.013a3.324,3.324,0,0,0-2.222,1.245,3.684,3.684,0,0,0-.817,2.515,1.668,1.668,0,0,0,.015.179l1.76,16.365h0a5.084,5.084,0,0,1,2.7,1.5c3.317,3.241,1.094,6.526-1.556,9.242-.5.516-1.084,1.065-1.627,1.58-.424.4-.823.779-1.216,1.181ZM120.633,162.93v-1.319a3.384,3.384,0,0,0-3.371-3.37H99.325a3.383,3.383,0,0,0-3.371,3.37v1.319a3.382,3.382,0,0,0,3.371,3.37h17.937a3.384,3.384,0,0,0,3.371-3.37ZM98.259,136.344a.963.963,0,1,1-1.379,1.345c-.392-.4-.792-.779-1.216-1.181-.543-.514-1.122-1.062-1.626-1.579-2.651-2.716-4.879-6-1.557-9.242h0a5.085,5.085,0,0,1,2.7-1.5l1.76-16.368c.007-.063.012-.123.015-.179a3.684,3.684,0,0,0-.822-2.515,3.324,3.324,0,0,0-2.227-1.245l-.161-.013a3.765,3.765,0,0,0-2.612.834,4.033,4.033,0,0,0-1.4,2.462l-3.873,22.519c-.866,5.027,5.3,12.2,9.879,17.531,1.141,1.328,2.188,2.547,3,3.586,1.019,1.3.911,3.5.825,5.23l-.014.288h17.3q1.518-6.808-.116-11.322h0a12.173,12.173,0,0,0-6.719-6.977c-2.241-1.043-4.441-3.508-6.647-5.978-.811-.907-1.622-1.815-2.453-2.667-2.531-2.594-4.991-4.354-7.089-2.306-2.124,2.072-.4,4.482,1.594,6.523.559.573,1.076,1.065,1.566,1.524s.939.888,1.277,1.234Zm19.416-32.1a9.218,9.218,0,1,0,6.518-2.7A9.219,9.219,0,0,0,117.675,104.24Z" transform="translate(-85.779 -90.121)"></path>
</svg>
