<?xml version="1.0" ?><!DOCTYPE svg  PUBLIC '-//W3C//DTD SVG 1.1//EN'
        'http://www.w3.org/Graphics/SVG/1.1/DTD/svg11.dtd'>
<svg enable-background="new 0 0 500 500" height="500px" id="Layer_1" version="1.1" viewBox="0 0 500 500" width="500px"
     xml:space="preserve" xmlns="http://www.w3.org/2000/svg"><g><path d="M293.081,359.376l-63.02-42.148h-53.077c-17.084,0-30.984-14.352-30.984-31.994V173.82    c0-17.641,13.899-31.994,30.984-31.994h146.535c17.084,0,30.984,14.352,30.984,31.994v111.414    c0,17.641-13.899,31.994-30.984,31.994h-30.437V359.376z M176.984,160.646c-7.035,0-12.758,5.91-12.758,13.174v111.414    c0,7.264,5.723,13.174,12.758,13.174h58.464l39.408,26.356v-26.356h48.663c7.035,0,12.758-5.91,12.758-13.174V173.82    c0-7.264-5.723-13.174-12.758-13.174H176.984z"/></g></svg>